<?xml version="1.0" encoding="UTF-8"?>
<!DOCTYPE svg PUBLIC "-//W3C//DTD SVG 1.1//EN" "http://www.w3.org/Graphics/SVG/1.1/DTD/svg11.dtd">
<!-- Creator: CorelDRAW -->
<svg xmlns="http://www.w3.org/2000/svg" xml:space="preserve" width="101.027mm" height="37.2516mm" version="1.1" style="shape-rendering:geometricPrecision; text-rendering:geometricPrecision; image-rendering:optimizeQuality; fill-rule:evenodd; clip-rule:evenodd"
viewBox="0 0 5751.55 2120.76"
 xmlns:xlink="http://www.w3.org/1999/xlink"
 xmlns:xodm="http://www.corel.com/coreldraw/odm/2003">
 <defs>
  <style type="text/css">
   <![CDATA[
    .fil3 {fill:#FEFEFE}
    .fil2 {fill:#E5097F}
    .fil1 {fill:#2B2A29;fill-rule:nonzero}
    .fil0 {fill:#E5097F;fill-rule:nonzero}
   ]]>
  </style>
 </defs>
 <g id="Camada_x0020_1">
  <metadata id="CorelCorpID_0Corel-Layer"/>
  <g id="_2369424089088">
   <path class="fil0" d="M2852.22 818.27c0,43.14 -7.36,82.6 -22.09,118.19 -14.73,35.59 -34.72,66.28 -59.97,91.71 -25.43,25.6 -55.06,45.24 -89.26,59.27 -34.02,14.2 -70.67,21.22 -109.6,21.22 -38.75,0 -75.05,-7.19 -109.24,-21.57 -34.02,-14.38 -63.83,-34.55 -89.43,-60.15 -25.43,-25.78 -45.6,-56.29 -60.32,-91.72 -14.73,-35.42 -22.09,-74.35 -22.09,-116.96l0 -489.08 140.81 0 0 256.9c7.54,-9.64 16.66,-18.06 27.53,-25.6 10.7,-7.54 22.44,-13.68 34.89,-18.59 12.45,-4.74 25.43,-8.42 38.76,-11.05 13.32,-2.45 26.48,-3.85 39.1,-3.85 38.93,0 75.58,7.36 109.6,21.92 34.19,14.55 63.83,34.72 89.26,60.85 25.25,25.95 45.24,56.82 59.97,92.24 14.73,35.42 22.09,74.18 22.09,116.26zm-141.16 0c0,-21.22 -3.68,-41.04 -11.05,-59.27 -7.37,-18.41 -17.36,-34.2 -30.16,-47.53 -12.63,-13.33 -27.36,-23.85 -44.37,-31.39 -17.01,-7.54 -35.07,-11.23 -54.19,-11.23 -19.29,0 -37.35,4.21 -54.18,12.63 -17.01,8.24 -31.74,19.46 -44.54,33.32 -12.63,13.85 -22.62,29.81 -29.81,47.7 -7.18,18.06 -10.7,36.65 -10.7,55.76 0,21.22 3.51,41.04 10.7,59.09 7.19,18.24 17.19,34.02 29.81,47.35 12.8,13.33 27.53,23.85 44.54,31.56 16.83,7.72 34.89,11.57 54.18,11.57 19.12,0 37.18,-3.85 54.19,-11.57 17.01,-7.71 31.74,-18.23 44.37,-31.56 12.8,-13.33 22.8,-29.11 30.16,-47.35 7.37,-18.06 11.05,-37.88 11.05,-59.09zm688.03 0c0,41.21 -7.37,79.44 -22.09,114.86 -14.73,35.42 -34.72,66.11 -60.15,91.89 -25.25,25.95 -55.06,46.29 -89.09,61.2 -34.02,14.9 -70.67,22.44 -109.77,22.44 -38.58,0 -75.05,-7.54 -109.07,-22.44 -34.19,-14.91 -63.83,-35.25 -89.43,-61.2 -25.43,-25.78 -45.6,-56.47 -60.32,-91.89 -14.73,-35.42 -22.09,-73.65 -22.09,-114.86 0,-41.74 7.37,-80.49 22.09,-116.09 14.73,-35.6 34.9,-66.28 60.32,-92.24 25.6,-25.78 55.24,-46.12 89.43,-60.85 34.02,-14.73 70.49,-22.09 109.07,-22.09 39.11,0 75.75,7.01 109.77,20.87 34.02,13.85 63.83,33.49 89.09,59.09 25.43,25.43 45.41,56.12 60.15,91.89 14.73,35.77 22.09,75.58 22.09,119.42zm-141.34 0c0,-22.62 -3.68,-42.97 -11.04,-61.38 -7.37,-18.23 -17.36,-34.02 -29.99,-47.17 -12.63,-13.33 -27.53,-23.32 -44.54,-30.33 -16.83,-7.01 -34.9,-10.53 -54.19,-10.53 -19.11,0 -37.18,3.51 -54.19,10.53 -16.83,7.01 -31.56,17.01 -44.19,30.33 -12.45,13.16 -22.27,28.94 -29.46,47.17 -7.19,18.41 -10.87,38.75 -10.87,61.38 0,21.22 3.68,41.04 10.87,59.09 7.19,18.24 17.01,34.02 29.46,47.35 12.63,13.33 27.36,23.85 44.19,31.56 17.01,7.72 35.08,11.57 54.19,11.57 19.29,0 37.35,-3.68 54.19,-10.87 17.01,-7.18 31.92,-17.18 44.54,-30.33 12.62,-12.98 22.62,-28.76 29.99,-47.17 7.36,-18.59 11.04,-38.93 11.04,-61.2zm688.21 0c0,41.21 -7.37,79.44 -22.09,114.86 -14.73,35.42 -34.72,66.11 -60.15,91.89 -25.25,25.95 -55.06,46.29 -89.09,61.2 -34.02,14.9 -70.67,22.44 -109.77,22.44 -38.58,0 -75.05,-7.54 -109.07,-22.44 -34.19,-14.91 -63.83,-35.25 -89.43,-61.2 -25.43,-25.78 -45.6,-56.47 -60.32,-91.89 -14.73,-35.42 -22.09,-73.65 -22.09,-114.86 0,-41.74 7.37,-80.49 22.09,-116.09 14.73,-35.6 34.9,-66.28 60.32,-92.24 25.6,-25.78 55.24,-46.12 89.43,-60.85 34.02,-14.73 70.49,-22.09 109.07,-22.09 39.11,0 75.75,7.01 109.77,20.87 34.02,13.85 63.83,33.49 89.09,59.09 25.43,25.43 45.41,56.12 60.15,91.89 14.73,35.77 22.09,75.58 22.09,119.42zm-141.34 0c0,-22.62 -3.68,-42.97 -11.04,-61.38 -7.37,-18.23 -17.36,-34.02 -29.99,-47.17 -12.63,-13.33 -27.53,-23.32 -44.54,-30.33 -16.83,-7.01 -34.9,-10.53 -54.19,-10.53 -19.11,0 -37.18,3.51 -54.19,10.53 -16.83,7.01 -31.56,17.01 -44.19,30.33 -12.45,13.16 -22.27,28.94 -29.46,47.17 -7.19,18.41 -10.87,38.75 -10.87,61.38 0,21.22 3.68,41.04 10.87,59.09 7.19,18.24 17.01,34.02 29.46,47.35 12.63,13.33 27.36,23.85 44.19,31.56 17.01,7.72 35.08,11.57 54.19,11.57 19.29,0 37.35,-3.68 54.19,-10.87 17.01,-7.18 31.92,-17.18 44.54,-30.33 12.62,-12.98 22.62,-28.76 29.99,-47.17 7.36,-18.59 11.04,-38.93 11.04,-61.2zm297.69 280.05l-141.16 0 0 -769.12 141.16 0 0 485.04 209.2 -265.14 161.33 0 -182.37 229.19 182.37 320.03 -161.33 0 -111.53 -199.91 -97.68 129.59 0 70.32z"/>
   <path class="fil1" d="M2808.4 1398.97c0,-30.34 -5.52,-59.03 -16.55,-86.07 -11.03,-27.03 -26.48,-50.62 -46.34,-70.75 -19.86,-20.14 -43.44,-36.13 -70.75,-48 -27.31,-11.86 -56.96,-17.79 -88.96,-17.79 -32.55,0 -62.48,5.93 -89.79,17.79 -27.31,11.86 -50.9,28 -70.75,48.41 -19.86,20.41 -35.31,44.27 -46.34,71.58 -11.03,27.31 -16.56,56.14 -16.56,86.48 0,30.34 5.52,59.03 16.56,86.07 11.03,27.03 26.48,50.62 46.34,70.75 19.86,20.14 43.31,36.14 70.34,48 27.04,11.86 56.55,17.79 88.55,17.79 32,0 61.79,-5.93 89.38,-17.79 27.58,-11.86 51.31,-28 71.17,-48.41 19.86,-20.42 35.45,-44.28 46.76,-71.58 11.31,-27.31 16.96,-56.13 16.96,-86.48zm-65.37 1.24c0,23.17 -3.86,44.68 -11.59,64.82 -7.73,20 -18.48,37.52 -32.27,52.41 -13.79,14.9 -30.34,26.48 -49.66,35.04 -19.31,8.55 -40.55,12.83 -63.72,12.83 -22.62,0 -43.59,-4.41 -62.9,-13.24 -19.31,-8.82 -36,-20.55 -50.06,-35.45 -14.07,-14.89 -25.1,-32.55 -33.1,-52.83 -8,-20.41 -12,-42.07 -12,-65.24 0,-23.17 3.86,-44.68 11.59,-64.82 7.73,-20 18.34,-37.65 31.86,-52.83 13.52,-15.17 29.93,-26.89 49.24,-35.45 19.31,-8.55 40.55,-12.83 63.72,-12.83 22.62,0 43.59,4.42 62.89,13.24 19.31,8.83 36.14,20.69 50.48,35.86 14.35,15.17 25.52,32.83 33.52,53.24 8,20.41 12,42.07 12,65.24zm191.42 42.62c0,-32 4.41,-60.27 13.24,-84.83 8.83,-24.55 20.97,-45.1 36.41,-61.65 15.45,-16.55 33.52,-28.96 54.2,-37.24 20.69,-8.28 42.62,-12.41 65.79,-12.41l4.97 0 0 -68.69c-20.42,-0.55 -39.45,1.93 -57.1,7.45 -17.65,5.52 -33.93,13.65 -48.82,24.41 -14.9,10.76 -28.14,23.59 -39.73,38.48 -11.59,14.9 -21.24,31.17 -28.96,48.82l0 -111.72 -63.72 0 0 427.84 63.72 0 0 -170.47zm608.5 96l0 -353.36 -63.72 0 0 76.96c-8.82,-11.59 -18.75,-22.62 -29.79,-33.1 -11.03,-10.48 -23.31,-19.58 -36.82,-27.31 -13.52,-7.73 -28.69,-13.93 -45.52,-18.62 -16.83,-4.69 -35.17,-7.03 -55.03,-7.03 -25.38,0 -50.21,4.69 -74.48,14.07 -24.28,9.38 -45.79,22.76 -64.55,40.14 -18.76,17.38 -33.79,38.62 -45.1,63.72 -11.31,25.1 -16.97,53.37 -16.97,84.82 0,31.45 5.65,59.58 16.97,84.41 11.31,24.83 26.34,45.93 45.1,63.31 18.76,17.38 40.14,30.62 64.14,39.72 24,9.1 48.96,13.66 74.89,13.66 39.17,0 72.27,-8.83 99.3,-26.48 27.03,-17.65 49.93,-38.9 68.69,-63.72l0 50.48c0,50.21 -14.07,88.13 -42.21,113.79 -28.14,25.65 -65.93,38.49 -113.37,38.49 -30.9,0 -59.86,-4.69 -86.89,-14.07 -27.03,-9.38 -52.96,-22.89 -77.79,-40.55l-28.96 49.65c28.69,19.86 59.3,34.76 91.86,44.69 32.55,9.93 66.75,14.89 102.61,14.89 33.11,0 63.03,-4.41 89.79,-13.24 26.76,-8.83 49.66,-21.93 68.69,-39.31 19.03,-17.38 33.65,-39.03 43.86,-64.96 10.21,-25.93 15.31,-56.27 15.31,-91.03zm-61.24 -160.54c0,22.07 -4.41,42.07 -13.24,59.99 -8.83,17.93 -20.55,33.24 -35.17,45.93 -14.62,12.69 -31.31,22.48 -50.06,29.38 -18.76,6.89 -38.34,10.34 -58.76,10.34 -19.86,0 -38.76,-3.45 -56.69,-10.34 -17.93,-6.89 -33.65,-16.83 -47.17,-29.79 -13.52,-12.96 -24.28,-28.41 -32.27,-46.34 -8,-17.93 -12,-37.93 -12,-60 0,-22.07 3.86,-42.07 11.59,-59.99 7.72,-17.93 18.34,-33.24 31.86,-45.93 13.52,-12.69 29.24,-22.34 47.17,-28.96 17.93,-6.62 37.1,-9.93 57.51,-9.93 20.42,0 40,3.45 58.76,10.34 18.75,6.9 35.45,16.69 50.06,29.38 14.62,12.69 26.34,28 35.17,45.93 8.82,17.93 13.24,37.93 13.24,60zm305.62 -142.34c40.27,0 71.58,9.79 93.93,29.38 22.34,19.58 33.52,48.69 33.52,87.31l0 14.89c-19.31,-5.52 -39.17,-9.93 -59.58,-13.24 -20.42,-3.31 -44.41,-4.96 -72,-4.96 -27.03,0 -51.72,3.03 -74.06,9.1 -22.35,6.07 -41.66,14.9 -57.93,26.48 -16.28,11.59 -28.83,26.06 -37.65,43.44 -8.83,17.38 -13.24,37.38 -13.24,60 0,22.62 4.55,42.2 13.65,58.75 9.1,16.55 21.24,30.48 36.41,41.79 15.17,11.31 32.27,19.72 51.31,25.24 19.03,5.52 38.48,8.28 58.34,8.28 38.07,0 69.65,-7.45 94.76,-22.35 25.1,-14.89 45.1,-32 60,-51.31l0 64.55 61.23 0 0 -261.51c0,-56.82 -15.72,-99.72 -47.17,-128.68 -31.45,-28.97 -76.41,-43.45 -134.89,-43.45 -31.45,0 -59.3,3.18 -83.58,9.52 -24.28,6.34 -48.28,15.04 -72,26.07l19.04 52.14c19.86,-9.38 40.14,-16.97 60.82,-22.76 20.69,-5.79 43.72,-8.69 69.1,-8.69zm2.9 160.54c26.34,0 49.93,1.93 70.48,5.79 20.69,3.87 38.9,8 54.89,12.42l0 41.38c0,17.1 -3.72,32.68 -11.17,46.75 -7.45,14.07 -17.52,26.21 -30.48,36.41 -12.97,10.21 -28,18.21 -45.38,24 -17.24,5.79 -35.86,8.69 -55.72,8.69 -14.2,0 -27.86,-1.93 -40.83,-5.8 -12.83,-3.86 -24.28,-9.51 -34.2,-16.96 -9.79,-7.45 -17.65,-16.41 -23.44,-26.9 -5.8,-10.48 -8.69,-22.62 -8.69,-36.41 0,-27.59 10.76,-49.38 32.14,-65.38 21.52,-16 52.27,-24 92.41,-24zm332.52 -28.14c0,-19.86 3.17,-38.06 9.51,-54.61 6.35,-16.56 15.31,-30.76 26.9,-42.62 11.59,-11.86 25.24,-20.97 40.96,-27.31 15.72,-6.35 32.69,-9.52 50.89,-9.52 38.07,0 67.31,11.59 87.72,34.76 20.41,23.17 30.62,54.62 30.62,94.34l0 249.92 63.72 0 0 -265.64c0,-25.37 -3.72,-48.54 -11.18,-69.51 -7.45,-20.96 -18.21,-39.03 -32.27,-54.2 -14.07,-15.17 -31.17,-26.89 -51.31,-35.17 -20.14,-8.27 -43.17,-12.41 -69.1,-12.41 -36.96,0 -67.03,8.14 -90.2,24.41 -23.17,16.28 -41.93,36 -56.27,59.17l0 -74.48 -63.72 0 0 427.84 63.72 0 0 -244.96zm467.82 -276.4l0 -70.34 -72.82 0 0 70.34 72.82 0zm-4.96 521.36l0 -427.84 -63.72 0 0 427.84 63.72 0zm354.45 -374.05l-283.85 333.5 0 40.55 370.74 0 0 -53.79 -284.67 0 284.67 -333.5 0 -40.55 -360.81 0 0 53.79 273.92 0zm174.87 183.72l338.46 0c0.55,-3.86 0.83,-7.45 0.83,-10.75 0,-3.31 0,-6.35 0,-9.1 0,-31.45 -4.41,-60.97 -13.24,-88.55 -8.83,-27.58 -21.79,-51.58 -38.9,-71.99 -17.1,-20.42 -38.07,-36.55 -62.9,-48.41 -24.82,-11.86 -52.96,-17.79 -84.41,-17.79 -29.79,0 -57.24,5.79 -82.34,17.38 -25.1,11.59 -46.75,27.45 -64.96,47.59 -18.21,20.14 -32.42,43.86 -42.62,71.17 -10.21,27.31 -15.31,56.41 -15.31,87.3 0,33.11 5.8,63.44 17.24,91.03 11.45,27.58 26.89,51.17 46.34,70.75 19.45,19.58 42.07,34.76 68,45.52 25.93,10.75 53.51,16.13 82.75,16.13 40.83,0 75.03,-7.31 102.61,-21.93 27.59,-14.62 52.14,-34.07 73.65,-58.34l-39.72 -35.58c-17.65,18.21 -37.1,32.83 -58.34,43.86 -21.24,11.03 -46.76,16.55 -76.55,16.55 -18.75,0 -36.69,-3.17 -53.79,-9.51 -17.1,-6.35 -32.55,-15.72 -46.34,-28.14 -13.79,-12.41 -25.1,-27.58 -33.93,-45.51 -8.82,-17.93 -14.34,-38.49 -16.55,-61.66zm0 -47.17c2.21,-20.97 7.17,-40.28 14.76,-57.93 7.73,-17.65 17.65,-32.96 29.66,-45.93 12.14,-12.96 26.07,-23.17 41.93,-30.62 15.86,-7.45 33.24,-11.18 51.86,-11.18 21.38,0 40.14,4 56.27,12 16.28,8 29.93,18.62 41.24,31.86 11.18,13.24 20,28.69 26.35,46.35 6.21,17.65 10.2,36.13 11.86,55.44l-273.92 0zm462.03 67.03c0,-32 4.41,-60.27 13.24,-84.83 8.83,-24.55 20.97,-45.1 36.41,-61.65 15.45,-16.55 33.52,-28.96 54.2,-37.24 20.69,-8.28 42.62,-12.41 65.79,-12.41l4.97 0 0 -68.69c-20.42,-0.55 -39.45,1.93 -57.1,7.45 -17.65,5.52 -33.93,13.65 -48.82,24.41 -14.9,10.76 -28.14,23.59 -39.73,38.48 -11.59,14.9 -21.24,31.17 -28.96,48.82l0 -111.72 -63.72 0 0 427.84 63.72 0 0 -170.47z"/>
   <g>
    <path class="fil2" d="M1060.38 0c585.64,0 1060.38,474.75 1060.38,1060.38 0,585.64 -474.75,1060.38 -1060.38,1060.38 -585.64,0 -1060.38,-474.75 -1060.38,-1060.38 0,-585.64 474.75,-1060.38 1060.38,-1060.38z"/>
    <g>
     <path class="fil3" d="M1419 487.42c149.4,0 271.63,122.23 271.63,271.63 0,149.4 -122.23,271.63 -271.63,271.63 -293.22,0 -586.42,0.56 -879.6,0.56 -38.05,0 -69.17,-31.12 -69.17,-69.17 0,-38.05 31.12,-69.17 69.17,-69.17 292.04,0 584.51,5.39 877.64,5.39 76.58,0 139.23,-62.65 139.23,-139.23l0 -0.01c0,-76.58 -62.65,-139.23 -139.23,-139.23 -292.4,0 -586.52,-0.98 -877.64,-0.98 -38.05,0 -69.17,-31.12 -69.17,-69.17 0,-38.05 31.12,-69.17 69.17,-69.17 292.42,0 585.49,6.93 879.6,6.93z"/>
     <path class="fil3" d="M532.67 713.39l863.03 0c6.65,0 12.09,5.43 12.09,12.08l0 0.01c0,6.64 -5.44,12.08 -12.09,12.08l-863.03 0c-6.66,0 -12.09,-5.43 -12.09,-12.08l0 -0.01c0,-6.65 5.43,-12.08 12.09,-12.08z"/>
     <path class="fil3" d="M538.56 790.34l851.24 0c9.89,0 17.98,8.09 17.98,17.98l0 0c0,9.89 -8.1,17.98 -17.98,17.98l-851.24 0c-9.89,0 -17.98,-8.09 -17.98,-17.98l0 0c0,-9.89 8.09,-17.98 17.98,-17.98z"/>
     <path class="fil3" d="M1419 1094.64c149.4,0 271.63,122.23 271.63,271.63 0,149.4 -122.23,271.63 -271.63,271.63 -293.22,0 -586.42,0.56 -879.6,0.56 -38.05,0 -69.17,-31.12 -69.17,-69.17 0,-38.05 31.12,-69.17 69.17,-69.17 292.04,0 584.51,5.39 877.64,5.39 76.58,0 139.23,-62.66 139.23,-139.23l0 -0.01c0,-76.57 -62.65,-139.22 -139.23,-139.22 -292.4,0 -586.52,-0.98 -877.64,-0.98 -38.05,0 -69.17,-31.12 -69.17,-69.17 0,-38.05 31.12,-69.17 69.17,-69.17 292.42,0 585.49,6.93 879.6,6.93z"/>
     <path class="fil3" d="M532.67 1320.61l863.03 0c6.65,0 12.09,5.43 12.09,12.09l0 0c0,6.65 -5.44,12.08 -12.09,12.08l-863.03 0c-6.66,0 -12.09,-5.43 -12.09,-12.08l0 0c0,-6.66 5.43,-12.09 12.09,-12.09z"/>
     <path class="fil3" d="M538.56 1397.56l851.24 0c9.89,0 17.98,8.09 17.98,17.98l0 0c0,9.89 -8.1,17.98 -17.98,17.98l-851.24 0c-9.89,0 -17.98,-8.09 -17.98,-17.98l0 0c0,-9.89 8.09,-17.98 17.98,-17.98z"/>
    </g>
   </g>
  </g>
 </g>
</svg>
