<?xml version="1.0" encoding="UTF-8"?>
<!DOCTYPE svg PUBLIC "-//W3C//DTD SVG 1.1//EN" "http://www.w3.org/Graphics/SVG/1.1/DTD/svg11.dtd">
<!-- Creator: CorelDRAW -->
<svg xmlns="http://www.w3.org/2000/svg" xml:space="preserve" width="37.2516mm" height="37.2516mm" version="1.1" style="shape-rendering:geometricPrecision; text-rendering:geometricPrecision; image-rendering:optimizeQuality; fill-rule:evenodd; clip-rule:evenodd"
viewBox="0 0 781.99 781.99"
 xmlns:xlink="http://www.w3.org/1999/xlink"
 xmlns:xodm="http://www.corel.com/coreldraw/odm/2003">
 <defs>
  <style type="text/css">
   <![CDATA[
    .fil1 {fill:#FEFEFE}
    .fil0 {fill:#40403F}
   ]]>
  </style>
 </defs>
 <g id="Camada_x0020_1">
  <metadata id="CorelCorpID_0Corel-Layer"/>
  <g id="_2369516021248">
   <circle class="fil0" cx="390.99" cy="390.99" r="390.99"/>
   <g>
    <path class="fil1" d="M523.23 179.73c55.09,0 100.16,45.07 100.16,100.16 0,55.09 -45.07,100.16 -100.16,100.16 -108.12,0 -216.23,0.21 -324.34,0.21 -14.03,0 -25.51,-11.48 -25.51,-25.51 0,-14.03 11.48,-25.51 25.51,-25.51 107.68,0 215.53,1.99 323.61,1.99 28.24,0 51.34,-23.1 51.34,-51.34l0 -0c0,-28.24 -23.1,-51.34 -51.34,-51.34 -107.82,0 -216.27,-0.36 -323.61,-0.36 -14.03,0 -25.51,-11.48 -25.51,-25.51 0,-14.03 11.48,-25.51 25.51,-25.51 107.82,0 215.89,2.55 324.34,2.55z"/>
    <rect class="fil1" x="191.95" y="263.05" width="327.13" height="8.91" rx="4.46" ry="4.46"/>
    <rect class="fil1" x="191.95" y="291.42" width="327.13" height="13.26" rx="4.46" ry="6.63"/>
    <path class="fil1" d="M523.23 403.63c55.09,0 100.16,45.07 100.16,100.16 0,55.09 -45.07,100.16 -100.16,100.16 -108.12,0 -216.23,0.21 -324.34,0.21 -14.03,0 -25.51,-11.48 -25.51,-25.51 0,-14.03 11.48,-25.51 25.51,-25.51 107.68,0 215.53,1.99 323.61,1.99 28.24,0 51.34,-23.1 51.34,-51.34l0 -0c0,-28.23 -23.1,-51.34 -51.34,-51.34 -107.82,0 -216.27,-0.36 -323.61,-0.36 -14.03,0 -25.51,-11.48 -25.51,-25.51 0,-14.03 11.48,-25.51 25.51,-25.51 107.82,0 215.89,2.55 324.34,2.55z"/>
    <rect class="fil1" x="191.95" y="486.95" width="327.13" height="8.91" rx="4.46" ry="4.46"/>
    <rect class="fil1" x="191.95" y="515.32" width="327.13" height="13.26" rx="4.46" ry="6.63"/>
   </g>
  </g>
 </g>
</svg>
